<?xml version="1.0" encoding="UTF-8"?>
<svg id="_レイヤー_1" data-name="レイヤー_1" xmlns="http://www.w3.org/2000/svg" viewBox="0 0 960 560">
  <defs>
    <style>
      .cls-1 {
        fill: #883b28;
      }

      .cls-2 {
        fill: #f7db56;
      }

      .cls-3 {
        fill: #e86b79;
      }
    </style>
  </defs>
  <g>
    <g>
      <path class="cls-1" d="M225.79,296.56s-13.52-4.79-14.02-27.29c-.5-22.5-2.09,23.09-2.09,23.09"/>
      <path class="cls-1" d="M169.17,296.56s13.52-4.79,14.02-27.29c.5-22.5,2.09,23.09,2.09,23.09"/>
      <g>
        <g>
          <path class="cls-1" d="M197.57,292.85h12.89l1.33-27.5c.27-15.37,4.61-22.49,8.38-28.22,3.13-4.76,7.85-7.29,12.3-10.85,14.47-11.58-.58.73,14.47-11.58,7.96-6.51,4.34-10.13-6.51-6.51-7.67,2.56-1.45.72-8.68,2.17-6.76,1.35-9.21-6.2-10.13-12.52-3.5-23.93-8.75-2.5-9.98.92-1.91,5.32-6.33,11.07-14.21,14.5h-.05"/>
          <path class="cls-1" d="M197.52,292.85h-12.89s-1.33-27.5-1.33-27.5c-.27-15.37-4.61-22.49-8.38-28.22-3.13-4.76-7.85-7.29-12.3-10.85-14.47-11.58.58.73-14.47-11.58-7.96-6.51-4.34-10.13,6.51-6.51,7.67,2.56,1.45.72,8.68,2.17,6.76,1.35,9.21-6.2,10.13-12.52,3.5-23.93,8.75-2.5,9.98.92,1.91,5.32,6.33,11.07,14.21,14.5h.05"/>
        </g>
        <path class="cls-1" d="M215.56,292.77c-.91-.28-1.85-.42-2.81-.42h-30.37c-.95,0-1.89.14-2.81.42-8.59,2.63-52.94,17.85-60.88,54.31-1.29,5.91,3.3,11.48,9.35,11.48h139.03c6.05,0,10.64-5.57,9.35-11.48-7.93-36.46-52.28-51.68-60.88-54.31Z"/>
      </g>
    </g>
    <g>
      <g>
        <path class="cls-2" d="M200.37,294.22h-.02s1.75-4.71,1.75-4.71h-8.45l1.54,4.71c.83-.21,1.69-.34,2.58-.34s1.76.13,2.59.34Z"/>
        <path class="cls-2" d="M209.84,293.88l-1.44-4.37h-4.63l-1.94,5.2c1.37.59,2.59,1.47,3.58,2.56l4.43-3.39Z"/>
        <path class="cls-2" d="M208.08,303.54h4.94l-2.7-8.21-4.02,3.07c1.01,1.48,1.64,3.24,1.76,5.14h.02Z"/>
        <path class="cls-2" d="M201.41,313.82l1.43,4.31,6.94-4.99-3.79-2.74c-1.16,1.53-2.75,2.73-4.58,3.42Z"/>
        <path class="cls-2" d="M195.48,314.22l-1.43,4.76h0s-.01.04-.01.04l3.79,2.72,3.69-2.65-1.44-4.86c-.74.17-1.5.26-2.29.26s-1.56-.1-2.29-.27Z"/>
        <path class="cls-2" d="M185.31,295.38l-2.68,8.16h4.86c.12-1.92.76-3.69,1.79-5.18l-3.97-2.98Z"/>
        <path class="cls-2" d="M190.14,297.27c1.01-1.12,2.26-2.02,3.68-2.61l-1.98-5.16h-4.6l-1.44,4.37h0l4.34,3.39Z"/>
        <path class="cls-2" d="M182.11,305.12l-1.41,4.31,3.88,2.79,4.23-2.97c-.7-1.24-1.15-2.63-1.29-4.12h-5.41Z"/>
        <path class="cls-2" d="M194.09,313.79c-1.81-.69-3.36-1.88-4.52-3.4l-3.77,2.7,7.03,5.06h0s-.02-.02-.02-.02l1.28-4.34Z"/>
        <path class="cls-2" d="M211.04,312.23l3.91-2.81-1.41-4.3h-5.46s-.05-.01-.05-.01c-.14,1.5-.6,2.91-1.31,4.15l4.32,2.96Z"/>
      </g>
      <circle class="cls-2" cx="197.78" cy="304.02" r="8.74"/>
      <circle class="cls-3" cx="197.46" cy="267.02" r="20.3"/>
      <circle class="cls-3" cx="163.23" cy="292.97" r="20.3"/>
      <circle class="cls-3" cx="176.74" cy="333.35" r="20.3"/>
      <circle class="cls-3" cx="219.32" cy="332.99" r="20.3"/>
      <circle class="cls-3" cx="232.13" cy="293" r="20.3" transform="translate(-13.11 10.88) rotate(-2.61)"/>
    </g>
  </g>
  <g>
    <path class="cls-3" d="M332.71,343.03v-112.91h22.8v112.91h-22.8Z"/>
    <path class="cls-3" d="M368.36,343.03v-16.87l30.65-35.2c5.03-5.75,8.75-9.83,11.17-12.25-2.52.15-5.83.26-9.94.31l-28.88.15v-17.95h67.62v15.33l-31.27,36.04-11.01,11.94c6.01-.36,9.73-.54,11.17-.54h33.5v19.02h-73.01Z"/>
    <path class="cls-3" d="M509.77,343.03v-12.25c-2.98,4.37-6.89,7.81-11.75,10.32-4.85,2.52-9.97,3.77-15.36,3.77s-10.42-1.21-14.79-3.62c-4.36-2.41-7.52-5.8-9.47-10.17-1.95-4.36-2.93-10.4-2.93-18.1v-51.76h21.64v37.59c0,11.5.4,18.55,1.19,21.14.8,2.59,2.25,4.65,4.35,6.16,2.1,1.52,4.77,2.27,8.01,2.27,3.7,0,7.01-1.01,9.94-3.04,2.93-2.03,4.93-4.54,6.01-7.55s1.62-10.36,1.62-22.07v-34.5h21.64v81.79h-20.1Z"/>
    <path class="cls-3" d="M623.6,285.42l-21.33,3.85c-.72-4.26-2.35-7.47-4.89-9.63-2.54-2.16-5.84-3.23-9.9-3.23-5.39,0-9.69,1.86-12.9,5.58-3.21,3.72-4.81,9.95-4.81,18.68,0,9.7,1.63,16.56,4.89,20.56,3.26,4.01,7.64,6.01,13.13,6.01,4.11,0,7.47-1.17,10.09-3.5,2.62-2.34,4.47-6.35,5.55-12.05l21.26,3.62c-2.21,9.76-6.44,17.12-12.71,22.1-6.26,4.98-14.66,7.47-25.18,7.47-11.96,0-21.5-3.77-28.61-11.32-7.11-7.55-10.67-18-10.67-31.35s3.57-24.02,10.71-31.54c7.14-7.52,16.79-11.28,28.96-11.28,9.96,0,17.88,2.14,23.76,6.43,5.88,4.29,10.1,10.82,12.67,19.6Z"/>
    <path class="cls-3" d="M661.57,230.12v41.51c6.98-8.16,15.33-12.25,25.03-12.25,4.98,0,9.47.92,13.48,2.77,4,1.85,7.02,4.21,9.05,7.09,2.03,2.88,3.41,6.06,4.16,9.55.74,3.49,1.12,8.91,1.12,16.25v47.98h-21.64v-43.21c0-8.57-.41-14.02-1.23-16.33-.82-2.31-2.27-4.15-4.35-5.51-2.08-1.36-4.69-2.04-7.82-2.04-3.59,0-6.8.87-9.63,2.62-2.82,1.75-4.89,4.38-6.2,7.89-1.31,3.52-1.96,8.72-1.96,15.6v40.97h-21.64v-112.91h21.64Z"/>
    <path class="cls-3" d="M736.36,250.15v-20.02h21.64v20.02h-21.64ZM736.36,343.03v-81.79h21.64v81.79h-21.64Z"/>
  </g>
</svg>