<?xml version="1.0" encoding="UTF-8"?>
<svg id="_レイヤー_2" data-name="レイヤー 2" xmlns="http://www.w3.org/2000/svg" viewBox="0 0 314 314">
  <defs>
    <style>
      .cls-1 {
        fill: #883b28;
      }

      .cls-2 {
        fill: #f7db56;
      }

      .cls-3 {
        fill: #e86b79;
      }

      .cls-4 {
        fill: #f7f7f7;
      }
    </style>
  </defs>
  <g id="_レイヤー_1-2" data-name="レイヤー 1">
    <circle class="cls-4" cx="157" cy="157" r="157"/>
    <g>
      <g>
        <path class="cls-1" d="M194.46,178.2s-16.88-5.98-17.5-34.07c-.62-28.09-2.6,28.82-2.6,28.82"/>
        <path class="cls-1" d="M123.76,178.2s16.88-5.98,17.5-34.07c.62-28.09,2.6,28.82,2.6,28.82"/>
        <g>
          <g>
            <path class="cls-1" d="M159.22,173.57h16.09l1.66-34.33c.34-19.19,5.76-28.08,10.46-35.23,3.91-5.94,9.8-9.11,15.36-13.55,18.07-14.45-.72.92,18.07-14.45,9.94-8.13,5.42-12.65-8.13-8.13-9.58,3.19-1.81.9-10.84,2.71-8.44,1.69-11.49-7.74-12.65-15.64-4.36-29.88-10.92-3.13-12.46,1.15-2.39,6.65-7.91,13.82-17.74,18.1h-.06"/>
            <path class="cls-1" d="M159.16,173.57h-16.09s-1.66-34.33-1.66-34.33c-.34-19.19-5.76-28.08-10.46-35.23-3.91-5.94-9.8-9.11-15.36-13.55-18.07-14.45.72.92-18.07-14.45-9.94-8.13-5.42-12.65,8.13-8.13,9.58,3.19,1.81.9,10.84,2.71,8.44,1.69,11.49-7.74,12.65-15.64,4.36-29.88,10.92-3.13,12.46,1.15,2.39,6.65,7.91,13.82,17.74,18.1h.06"/>
          </g>
          <path class="cls-1" d="M181.68,173.47c-1.14-.35-2.31-.53-3.5-.53h-37.92c-1.19,0-2.37.18-3.5.53-10.73,3.28-66.1,22.29-76,67.81-1.61,7.38,4.12,14.34,11.68,14.34h173.57c7.55,0,13.28-6.95,11.68-14.34-9.9-45.52-65.28-64.53-76-67.81Z"/>
        </g>
      </g>
      <g>
        <g>
          <path class="cls-2" d="M162.72,175.28h-.03s2.19-5.88,2.19-5.88h-10.55l1.93,5.88c1.03-.27,2.11-.42,3.22-.42s2.2.16,3.24.43Z"/>
          <path class="cls-2" d="M174.55,174.85l-1.79-5.46h-5.78l-2.42,6.5c1.72.74,3.24,1.83,4.47,3.2l5.53-4.24Z"/>
          <path class="cls-2" d="M172.34,186.91h6.16l-3.37-10.25-5.02,3.83c1.26,1.85,2.05,4.05,2.19,6.42h.03Z"/>
          <path class="cls-2" d="M164.01,199.75l1.79,5.38,8.66-6.23-4.74-3.42c-1.45,1.91-3.43,3.41-5.72,4.27Z"/>
          <path class="cls-2" d="M156.62,200.25l-1.79,5.94h0s-.01.05-.01.05l4.73,3.4,4.6-3.31-1.8-6.07c-.92.21-1.88.32-2.86.32s-1.94-.12-2.86-.33Z"/>
          <path class="cls-2" d="M143.92,176.72l-3.34,10.19h6.07c.15-2.39.95-4.6,2.23-6.46l-4.96-3.72Z"/>
          <path class="cls-2" d="M149.95,179.09c1.26-1.4,2.82-2.52,4.59-3.25l-2.47-6.44h-5.75l-1.79,5.46h0l5.42,4.24Z"/>
          <path class="cls-2" d="M139.93,188.88l-1.77,5.38,4.84,3.48,5.28-3.71c-.88-1.55-1.44-3.29-1.61-5.15h-6.75Z"/>
          <path class="cls-2" d="M154.88,199.72c-2.26-.87-4.2-2.35-5.64-4.24l-4.71,3.37,8.78,6.31h0s-.03-.02-.03-.02l1.6-5.42Z"/>
          <path class="cls-2" d="M176.04,197.77l4.88-3.51-1.76-5.36-6.82-.02h-.06c-.17,1.88-.75,3.63-1.64,5.19l5.4,3.7Z"/>
        </g>
        <circle class="cls-2" cx="159.48" cy="187.52" r="10.92"/>
        <circle class="cls-3" cx="159.09" cy="141.33" r="25.34"/>
        <circle class="cls-3" cx="116.35" cy="173.72" r="25.34"/>
        <circle class="cls-3" cx="133.22" cy="224.14" r="25.34"/>
        <circle class="cls-3" cx="186.38" cy="223.68" r="25.34"/>
        <circle class="cls-3" cx="202.37" cy="173.76" r="25.34" transform="translate(-7.71 9.4) rotate(-2.61)"/>
      </g>
    </g>
  </g>
</svg>