<?xml version="1.0" encoding="UTF-8"?>
<svg id="_レイヤー_2" data-name="レイヤー 2" xmlns="http://www.w3.org/2000/svg" viewBox="0 0 302.55 328.81">
  <defs>
    <style>
      .cls-1 {
        fill: #883b28;
      }

      .cls-2 {
        fill: #f7db56;
      }

      .cls-3 {
        fill: #e86b79;
      }
    </style>
  </defs>
  <g id="_レイヤー_1-2" data-name="レイヤー 1">
    <g>
      <g>
        <path class="cls-1" d="M205.27,210.2s-25.86-9.17-26.81-52.2c-.96-43.04-3.99,44.16-3.99,44.16"/>
        <path class="cls-1" d="M96.96,210.2s25.86-9.17,26.81-52.2,3.99,44.16,3.99,44.16"/>
        <g>
          <g>
            <path class="cls-1" d="M151.28,203.11h24.66l2.55-52.59c.52-29.4,8.83-43.03,16.03-53.98,5.99-9.1,15.02-13.95,23.53-20.76,27.68-22.14-1.1,1.4,27.68-22.14,15.22-12.46,8.3-19.38-12.46-12.46-14.68,4.89-2.77,1.38-16.61,4.15-12.93,2.59-17.61-11.85-19.38-23.96-6.69-45.78-16.73-4.79-19.09,1.77-3.66,10.18-12.12,21.18-27.18,27.73h-.1"/>
            <path class="cls-1" d="M151.19,203.11h-24.66s-2.55-52.59-2.55-52.59c-.52-29.4-8.83-43.03-16.03-53.98-5.99-9.1-15.02-13.95-23.53-20.76-27.68-22.14,1.1,1.4-27.68-22.14-15.22-12.46-8.3-19.38,12.46-12.46,14.68,4.89,2.77,1.38,16.61,4.15,12.93,2.59,17.61-11.85,19.38-23.96,6.69-45.78,16.73-4.79,19.09,1.77,3.66,10.18,12.12,21.18,27.18,27.73h.1"/>
          </g>
          <path class="cls-1" d="M185.69,202.96c-1.74-.53-3.54-.81-5.37-.81h-58.1c-1.82,0-3.62.27-5.37.81-16.43,5.02-101.27,34.14-116.44,103.89-2.46,11.31,6.32,21.97,17.89,21.97h265.93c11.57,0,20.35-10.66,17.89-21.97-15.18-69.74-100.01-98.86-116.44-103.89Z"/>
        </g>
      </g>
      <g>
        <g>
          <path class="cls-2" d="M156.64,205.73l-.04-.02,3.35-9h-16.16l2.95,9.01c1.58-.41,3.23-.65,4.94-.65s3.37.24,4.96.65Z"/>
          <path class="cls-2" d="M174.76,205.07l-2.75-8.36h-8.86l-3.71,9.95c2.63,1.13,4.96,2.81,6.86,4.9l8.47-6.49Z"/>
          <path class="cls-2" d="M171.39,223.55h9.44l-5.16-15.71-7.69,5.87c1.93,2.84,3.13,6.2,3.36,9.84h.05Z"/>
          <path class="cls-2" d="M158.63,243.23l2.74,8.24,13.28-9.54-7.26-5.24c-2.22,2.93-5.25,5.22-8.76,6.54Z"/>
          <path class="cls-2" d="M147.29,243.98l-2.74,9.1h0s-.02.07-.02.07l7.25,5.21,7.05-5.07-2.75-9.3c-1.41.32-2.88.5-4.39.5s-2.97-.19-4.39-.51Z"/>
          <path class="cls-2" d="M127.84,207.94l-5.12,15.6h9.31c.23-3.66,1.46-7.05,3.42-9.9l-7.6-5.7Z"/>
          <path class="cls-2" d="M137.08,211.56c1.94-2.14,4.33-3.86,7.03-4.98l-3.78-9.87h-8.81l-2.75,8.36h0l8.3,6.49Z"/>
          <path class="cls-2" d="M121.72,226.57l-2.71,8.24,7.42,5.34,8.09-5.69c-1.34-2.37-2.21-5.04-2.47-7.89h-10.34Z"/>
          <path class="cls-2" d="M144.63,243.17c-3.46-1.33-6.43-3.6-8.64-6.5l-7.22,5.16,13.45,9.67h0s-.04-.03-.04-.03l2.45-8.3Z"/>
          <path class="cls-2" d="M177.06,240.18l7.47-5.37-2.7-8.22-10.44-.03h-.09c-.26,2.87-1.15,5.56-2.51,7.95l8.27,5.67Z"/>
        </g>
        <circle class="cls-2" cx="151.68" cy="224.48" r="16.72"/>
        <circle class="cls-3" cx="151.08" cy="153.71" r="38.82"/>
        <circle class="cls-3" cx="85.61" cy="203.34" r="38.82"/>
        <circle class="cls-3" cx="111.44" cy="280.58" r="38.82"/>
        <circle class="cls-3" cx="192.89" cy="279.88" r="38.82"/>
        <circle class="cls-3" cx="217.39" cy="203.4" r="38.82" transform="translate(-9.04 10.12) rotate(-2.61)"/>
      </g>
    </g>
  </g>
</svg>